<?xml version="1.0" standalone="no"?>
<!DOCTYPE svg PUBLIC "-//W3C//DTD SVG 20010904//EN"
 "http://www.w3.org/TR/2001/REC-SVG-20010904/DTD/svg10.dtd">
<svg version="1.0" xmlns="http://www.w3.org/2000/svg"
 width="1675.000000pt" height="1675.000000pt" viewBox="0 0 1675.000000 1675.000000"
 preserveAspectRatio="xMidYMid meet">
<metadata>
Created by potrace 1.11, written by Peter Selinger 2001-2013
</metadata>
<g transform="translate(0.000000,1675.000000) scale(0.100000,-0.100000)"
fill="#000000" stroke="none">
<path d="M5 16738 c-3 -7 -4 -3775 -3 -8373 l3 -8360 8370 0 8370 0 0 8370 0
8370 -8368 3 c-6689 2 -8369 0 -8372 -10z m7935 -5377 l0 -89 778 -5 c803 -5
878 -9 1142 -53 233 -38 512 -119 709 -203 l95 -41 488 0 488 0 0 -100 0 -100
-311 -2 -311 -3 90 -67 c465 -347 807 -914 935 -1548 138 -681 85 -1436 -140
-2010 -352 -894 -1088 -1450 -2118 -1599 -239 -35 -432 -41 -1302 -41 l-843 0
0 -100 0 -100 -395 0 -395 0 0 1885 0 1885 80 0 80 0 0 695 0 695 -130 0 -130
0 0 495 0 495 595 0 595 0 0 -89z m-3955 -50 c491 -76 888 -244 1196 -507 314
-269 531 -685 574 -1104 3 -30 8 -74 11 -97 l5 -43 190 0 189 0 0 -145 0 -145
-1045 0 -1045 0 0 145 0 145 96 0 96 0 -6 38 c-4 20 -25 75 -46 120 -73 155
-210 258 -415 314 -71 19 -105 22 -300 22 -197 0 -229 -2 -305 -22 -125 -33
-221 -82 -283 -144 -66 -66 -97 -131 -109 -229 -33 -252 145 -421 567 -537 61
-17 272 -65 470 -107 533 -114 756 -182 1030 -314 406 -196 667 -434 830 -760
158 -316 205 -748 123 -1131 -170 -792 -845 -1266 -1933 -1360 -168 -15 -605
-15 -765 0 -434 39 -782 128 -1078 276 -175 87 -290 162 -417 272 -219 190
-391 448 -490 735 l-37 107 -159 0 -159 0 0 255 0 255 -160 0 -160 0 0 100 0
100 1015 0 1015 0 4 -22 c3 -13 10 -59 17 -103 60 -425 367 -676 857 -702
l122 -6 0 -69 0 -68 415 0 415 0 -2 638 -3 637 -410 0 -410 0 -3 -58 c-2 -45
-6 -57 -17 -54 -7 3 -163 38 -347 77 -600 128 -808 190 -1073 320 -433 212
-695 488 -820 863 -57 171 -66 233 -72 462 -5 186 -3 225 17 340 132 781 779
1333 1750 1494 211 35 284 40 610 36 261 -2 339 -6 455 -24z m10993 -153 l3
-108 -36 0 -35 0 0 -1240 0 -1240 35 0 35 0 0 -1535 0 -1535 -785 0 -785 0 0
395 0 394 103 3 102 3 3 1238 2 1237 -105 0 -105 0 0 1000 0 1000 -242 2 -243
3 -3 235 c-1 129 0 240 3 247 3 11 205 13 1027 11 l1023 -3 3 -107z m812
-2783 l0 -2875 -320 0 -320 0 0 2875 0 2875 320 0 320 0 0 -2875z m510 -545
l0 -2330 -145 0 -145 0 0 2330 0 2330 145 0 145 0 0 -2330z"/>
<path d="M8580 8795 l0 -1145 195 0 195 0 0 -100 0 -100 -195 0 -195 0 0 -110
0 -110 -235 0 -235 0 0 -201 0 -200 678 4 c732 4 731 4 937 63 191 54 315 125
445 254 136 137 218 284 284 511 100 347 111 927 26 1337 -92 439 -328 729
-695 851 -217 72 -395 91 -867 91 l-338 0 0 -1145z"/>
</g>
</svg>
