<?xml version="1.0" encoding="utf-8"?>
<!-- Generator: Adobe Illustrator 15.1.0, SVG Export Plug-In . SVG Version: 6.00 Build 0)  -->
<!DOCTYPE svg PUBLIC "-//W3C//DTD SVG 1.1//EN" "http://www.w3.org/Graphics/SVG/1.1/DTD/svg11.dtd">
<svg version="1.1" id="Layer_1" xmlns="http://www.w3.org/2000/svg" xmlns:xlink="http://www.w3.org/1999/xlink" x="0px" y="0px"
	 width="17px" height="18px" viewBox="-0.5 0 17 18" enable-background="new -0.5 0 17 18" xml:space="preserve">
<path fill="#001B89" d="M10.961,13.627c-0.559-0.102-1.146-0.053-1.704,0.146c-0.84,0.301-1.473,0.879-1.737,1.553l-0.705-0.039
	c-0.004,0-0.011,0-0.015,0c-0.454-0.016-1.136-0.436-1.489-1.119c-0.279-0.537-0.454-1.416,0.285-2.561l5.688-8.592
	C11.285,3.011,11.289,3.007,11.291,3c0.524-0.84,0.753-1.458,0.541-2.498c-0.068-0.339-0.399-0.56-0.736-0.49
	c-0.338,0.069-0.556,0.402-0.486,0.742c0.12,0.597,0.051,0.891-0.371,1.569l-5.683,8.592c-0.002,0.002-0.002,0.004-0.004,0.006
	c-1.127,1.742-0.701,3.146-0.348,3.828c0.531,1.023,1.577,1.758,2.548,1.794l2.595,0.146c0.014,0,0.023,0,0.036,0
	c0.024,0,0.048-0.002,0.073-0.004c0.107,0.011,0.216,0.04,0.278,0.106c0.083,0.09,0.12,0.287,0.102,0.526
	c-0.028,0.346,0.228,0.649,0.57,0.679C10.426,18,10.442,18,10.459,18c0.32,0,0.595-0.247,0.622-0.576
	c0.05-0.607-0.099-1.121-0.427-1.481c-0.217-0.236-0.621-0.52-1.318-0.52c-0.021,0-0.042,0.002-0.063,0.002l-0.328-0.019
	c0.185-0.185,0.438-0.346,0.728-0.448c0.284-0.101,1.274-0.369,2.049,0.448c0.237,0.252,0.632,0.26,0.882,0.021
	c0.25-0.24,0.258-0.638,0.021-0.889C12.171,14.059,11.595,13.744,10.961,13.627z"/>
<path fill="#001B89" d="M14.833,14c-0.011,0.031-0.032,0.074-0.042,0.105C14.813,14.105,14.833,14.063,14.833,14z"/>
<path fill="#001B89" d="M14.506,11.959c-0.195-0.465-0.525-0.854-0.936-1.139c-0.204-0.143-0.422-0.26-0.639-0.359
	c-0.438-0.196-0.882-0.325-1.316-0.439l-0.008-0.002C11.561,10.009,11.511,10,11.459,10c-0.359-0.004-0.652,0.287-0.657,0.652
	s0.281,0.664,0.64,0.668c0.41,0.005,0.813,0.027,1.188,0.095c0.377,0.069,0.703,0.226,1.019,0.409
	c0.749,0.436,1.042,1.975,1.022,2.176C14.887,13.49,14.799,12.502,14.506,11.959z"/>
<path fill="#001B89" d="M2.327,15c0.275,0,0.499-0.224,0.499-0.5S2.602,14,2.327,14s-0.499,0.224-0.499,0.5S2.051,15,2.327,15z"/>
<path fill="#001B89" d="M1.33,12c0.275,0,0.499-0.224,0.499-0.5S1.605,11,1.33,11s-0.499,0.224-0.499,0.5S1.054,12,1.33,12z"/>
<path fill="#001B89" d="M4.321,17c0.275,0,0.499-0.224,0.499-0.5S4.596,16,4.321,16s-0.499,0.224-0.499,0.5S4.045,17,4.321,17z"/>
<path fill="#001B89" d="M6.315,18c0.275,0,0.499-0.224,0.499-0.5S6.59,17,6.315,17s-0.499,0.224-0.499,0.5S6.04,18,6.315,18z"/>
<path fill="#001B89" d="M1.33,9c0.275,0,0.499-0.224,0.499-0.5S1.605,8,1.33,8S0.831,8.224,0.831,8.5S1.054,9,1.33,9z"/>
</svg>
