<?xml version="1.0" encoding="utf-8"?>
<!-- Generator: Adobe Illustrator 15.1.0, SVG Export Plug-In . SVG Version: 6.00 Build 0)  -->
<!DOCTYPE svg PUBLIC "-//W3C//DTD SVG 1.1//EN" "http://www.w3.org/Graphics/SVG/1.1/DTD/svg11.dtd">
<svg version="1.1" id="Layer_1" xmlns="http://www.w3.org/2000/svg" xmlns:xlink="http://www.w3.org/1999/xlink" x="0px" y="0px"
	 width="17px" height="20px" viewBox="-1 0 17 20" enable-background="new -1 0 17 20" xml:space="preserve">
<path fill="#001B89" d="M10.359,11.091C10.067,10.436,9.08,8.291,8.02,6C6.923,3.636,5.644,0.945,5.424,0.4
	C5.388,0.291,5.278,0.182,5.168,0.109c-0.11-0.037-0.256-0.073-0.366,0c-0.11,0.037-0.22,0.146-0.292,0.254
	c-0.073,0.109-0.073,0.255,0,0.4c0.219,0.582,1.426,3.164,2.596,5.672c1.024,2.146,2.047,4.4,2.339,5.054
	c0.221,0.546,0.221,1.236-0.036,1.709c-0.183,0.328-0.476,0.51-0.841,0.582c-0.293,0.037-0.585,0-0.987-0.036
	c-2.084-0.255-4.79-0.327-7.167,1.019c-0.109,0.072-0.183,0.182-0.219,0.291s0,0.254,0.037,0.363
	c0.073,0.146,0.256,0.254,0.438,0.254c0.073,0,0.183-0.035,0.256-0.072c2.157-1.236,4.643-1.127,6.544-0.909
	c0.366,0.036,0.804,0.109,1.243,0.036c0.694-0.108,1.207-0.473,1.572-1.09C10.689,12.908,10.726,11.928,10.359,11.091z"/>
<path fill="#001B89" d="M3.668,13.091c0.512-0.108,0.951-0.218,1.353-0.399c0.146-0.073,0.329-0.109,0.475-0.183L5.789,12.4
	c0.329-0.109,0.731-0.219,1.097-0.146c0.146,0.037,0.256,0.109,0.329,0.219c0.073,0.109,0.073,0.219,0.073,0.254
	c0,0.037-0.073,0.073-0.146,0.109c-0.037,0.037-0.146,0.073-0.146,0.182c0,0.182,0.292,0.219,0.329,0.219
	c0.073,0,0.183-0.037,0.256-0.072c0.11-0.073,0.22-0.182,0.292-0.328c0.037-0.072,0.073-0.145,0.073-0.218
	c0.037-0.073,0.037-0.146,0.037-0.218c0-0.146-0.037-0.291-0.073-0.437C7.8,11.673,7.544,11.49,7.288,11.382
	c-0.219-0.073-0.512-0.109-0.804-0.073c-0.256,0.037-0.439,0.073-0.658,0.146L5.46,11.563C5.387,11.6,5.314,11.6,5.241,11.637
	C4.985,11.709,4.729,11.854,4.437,12c-0.877,0.437-1.865,0.909-2.45,0.072c-0.146-0.218-0.256-0.509-0.292-0.836
	C1.621,10.618,1.804,10,2.133,9.491c0-0.036,0.073-0.109,0.037-0.218L2.133,9.2L2.06,9.164c-0.037,0-0.11,0-0.183,0.037
	c-0.329,0.291-0.585,0.69-0.731,1.236C1,10.982,1,11.49,1.146,11.928C1.438,12.982,2.353,13.382,3.668,13.091z"/>
<path fill="#001B89" d="M4.816,6.492c0-0.068-0.069-0.102-0.139-0.102c-0.069,0-0.173,0.034-0.243,0
	c-0.069,0-0.173-0.034-0.243-0.034C4.087,6.323,4.018,6.323,3.914,6.255c0-0.068,0.035-0.136,0.035-0.204
	c0.035-0.034,0.069-0.068,0.104-0.068c0.139-0.068,0.312-0.136,0.52-0.102c0.069,0.034,0.139-0.068,0.104-0.136
	C4.642,5.677,4.573,5.644,4.503,5.711C4.399,5.779,4.295,5.813,4.191,5.813c-0.069,0-0.139,0-0.173,0H3.983
	c0-0.068-0.035-0.136-0.035-0.17c0.069-0.034,0.104-0.068,0.173-0.102c0.035,0,0.104-0.034,0.173-0.034c0.035,0,0.104,0,0.139,0
	s0.069,0,0.104-0.034s0.035-0.102,0-0.136V5.304C4.503,5.27,4.469,5.202,4.434,5.202S4.365,5.236,4.365,5.27
	C4.33,5.304,4.295,5.338,4.261,5.372c-0.069,0.068-0.208,0.17-0.347,0.17C3.879,5.474,3.81,5.372,3.741,5.304
	c0,0,0-0.034,0.035-0.034C3.81,5.168,3.879,5.066,3.949,4.998c0.035-0.034,0.104-0.102,0.139-0.136s0.208-0.068,0.173-0.17
	C4.226,4.625,4.157,4.557,4.087,4.591C4.053,4.625,4.018,4.692,3.983,4.727C3.949,4.794,3.879,4.862,3.81,4.93
	S3.637,5.066,3.532,5.1C3.428,5.032,3.324,4.964,3.22,4.93c0-0.034,0-0.068,0-0.102c0-0.102,0.035-0.169,0.104-0.237
	C3.428,4.522,3.29,4.421,3.22,4.455c-0.069,0-0.035,0.136-0.035,0.169c0,0.102-0.035,0.17-0.104,0.238
	C3.047,4.896,2.978,4.896,2.943,4.828C2.908,4.692,2.908,4.522,2.908,4.421c0-0.068,0.035-0.17,0.035-0.238
	c0.035-0.034,0.035-0.102,0.035-0.136c0-0.034-0.035-0.034-0.035-0.034c-0.069-0.034-0.139,0-0.173,0.068c0,0.034,0,0.102,0,0.136
	c0.035,0.102,0,0.238,0,0.374C2.735,4.692,2.735,4.862,2.631,4.93c-0.035,0-0.069,0-0.104,0.034c-0.208,0-0.313-0.374-0.278-0.543
	c0-0.034-0.035-0.102-0.035-0.102c-0.035,0-0.104,0-0.139,0.034c0,0,0,0.068,0,0.102C2.284,4.692,2.284,5.1,1.937,5.168
	c-0.104,0.034-0.243,0-0.347-0.068C1.556,5.066,1.486,5.032,1.452,4.998c-0.035-0.034-0.104-0.17-0.174-0.102
	C1.139,4.964,1.243,5.066,1.347,5.1c0.07,0,0.139,0.034,0.174,0.068c0.104,0.068,0.208,0.17,0.277,0.238
	c0,0,0.035,0.034,0.035,0.068c0,0,0,0.034-0.035,0.034c0,0-0.035,0-0.069,0c-0.139,0-0.243-0.034-0.347-0.034
	c-0.069,0-0.173-0.034-0.208-0.068C1.104,5.372,1.035,5.27,0.966,5.304c-0.069,0-0.139,0.102-0.139,0.17s0.035,0.102,0.139,0.102
	c0.069,0,0.173,0,0.243,0s0.173,0.034,0.243,0.068c0.104,0.034,0.173,0.068,0.277,0.136c0,0.068-0.035,0.102-0.035,0.17
	C1.66,5.983,1.59,6.017,1.556,6.051C1.382,6.119,1.208,6.187,1.035,6.119C0.966,6.085,0.896,6.187,0.931,6.255
	c0.035,0.068,0.104,0.102,0.173,0.034c0.104-0.068,0.208-0.102,0.347-0.102c0.069,0,0.139,0,0.173,0s0.035,0,0.069,0
	c0,0.068,0.035,0.102,0.035,0.17C1.66,6.391,1.59,6.424,1.521,6.458c-0.069,0-0.104,0.034-0.174,0.034c-0.035,0-0.104,0-0.139,0
	s-0.069,0-0.104,0.034s-0.035,0.102,0,0.136v0.034C1.139,6.73,1.174,6.798,1.208,6.798S1.278,6.764,1.278,6.73
	c0.035-0.034,0.069-0.068,0.104-0.068c0.07-0.068,0.243-0.17,0.382-0.17c0.035,0.068,0.069,0.136,0.139,0.204
	c0,0.034-0.035,0.034-0.035,0.068C1.798,6.866,1.764,6.968,1.694,7.036C1.66,7.07,1.59,7.138,1.556,7.138
	c-0.035,0.034-0.243,0.068-0.174,0.17c0.035,0.068,0.104,0.136,0.174,0.102C1.59,7.375,1.625,7.308,1.66,7.273
	C1.694,7.206,1.764,7.138,1.833,7.07S2.006,6.934,2.11,6.9c0.104,0.068,0.173,0.136,0.312,0.17c0,0.034,0,0.068,0,0.102
	c0,0.102-0.035,0.169-0.139,0.237C2.18,7.478,2.318,7.579,2.388,7.545c0.069,0,0.069-0.136,0.069-0.169
	c0-0.102,0.035-0.17,0.104-0.238C2.596,7.104,2.666,7.104,2.7,7.172c0.035,0.136,0.035,0.306,0,0.407
	c0,0.068-0.035,0.17-0.069,0.238C2.596,7.851,2.562,7.919,2.596,7.953c0,0.034,0.035,0.034,0.035,0.034
	c0.069,0.034,0.139,0,0.173-0.068c0-0.034,0-0.102,0-0.136c-0.035-0.102,0-0.238,0.035-0.374C2.874,7.308,2.874,7.138,2.978,7.07
	c0.035,0,0.069,0,0.104-0.034C3.29,7.07,3.359,7.409,3.324,7.579c0,0.034,0.035,0.102,0.035,0.102c0.035,0,0.104,0,0.139-0.034
	c0.035,0,0.035-0.068,0-0.102C3.394,7.409,3.359,7.273,3.394,7.104c0-0.068,0.035-0.136,0.035-0.169
	C3.532,6.73,3.845,6.696,4.087,6.798C4.122,6.832,4.191,6.866,4.226,6.9C4.261,6.934,4.33,7.07,4.399,7.002
	c0.139-0.068,0.035-0.17-0.069-0.204c-0.069,0-0.139-0.034-0.173-0.068C4.053,6.662,3.949,6.561,3.845,6.492V6.458
	c0-0.034,0.035-0.068,0.035-0.102h0.035c0.139,0,0.243,0,0.347,0.034c0.069,0,0.173,0.034,0.208,0.068
	c0.069,0.034,0.139,0.102,0.208,0.102C4.747,6.662,4.816,6.561,4.816,6.492z"/>
<path fill="#001B89" d="M14.787,9.492c0-0.068-0.069-0.102-0.139-0.102s-0.174,0.034-0.242,0c-0.07,0-0.174-0.034-0.243-0.034
	c-0.104-0.034-0.173-0.034-0.277-0.102c0-0.068,0.034-0.136,0.034-0.204c0.035-0.034,0.07-0.068,0.104-0.068
	c0.139-0.068,0.312-0.136,0.521-0.102c0.068,0.034,0.139-0.068,0.104-0.136c-0.035-0.068-0.104-0.102-0.174-0.034
	c-0.104,0.068-0.207,0.102-0.312,0.102c-0.069,0-0.139,0-0.173,0h-0.035c0-0.068-0.035-0.136-0.035-0.17
	c0.07-0.034,0.104-0.068,0.174-0.102c0.035,0,0.104-0.034,0.174-0.034c0.034,0,0.104,0,0.139,0c0.034,0,0.068,0,0.104-0.034
	s0.035-0.102,0-0.136V8.304c-0.035-0.034-0.069-0.102-0.104-0.102c-0.035,0-0.07,0.034-0.07,0.068
	c-0.034,0.034-0.068,0.068-0.104,0.102c-0.069,0.068-0.208,0.17-0.347,0.17c-0.034-0.068-0.104-0.17-0.173-0.238
	c0,0,0-0.034,0.034-0.034c0.034-0.102,0.104-0.204,0.173-0.272c0.035-0.034,0.104-0.102,0.139-0.136
	c0.035-0.034,0.209-0.068,0.174-0.17c-0.035-0.068-0.104-0.136-0.174-0.102c-0.034,0.034-0.068,0.102-0.104,0.136
	c-0.035,0.068-0.104,0.136-0.174,0.204c-0.068,0.068-0.173,0.136-0.277,0.17c-0.104-0.068-0.208-0.136-0.313-0.17
	c0-0.034,0-0.068,0-0.102c0-0.102,0.035-0.169,0.104-0.237c0.104-0.068-0.034-0.17-0.104-0.136c-0.068,0-0.034,0.136-0.034,0.169
	c0,0.102-0.034,0.17-0.104,0.238c-0.034,0.034-0.104,0.034-0.139-0.034C12.88,7.692,12.88,7.522,12.88,7.421
	c0-0.068,0.034-0.17,0.034-0.238c0.035-0.034,0.035-0.102,0.035-0.136c0-0.034-0.035-0.034-0.035-0.034
	c-0.068-0.034-0.139,0-0.173,0.068c0,0.034,0,0.102,0,0.136c0.034,0.102,0,0.238,0,0.374c-0.034,0.102-0.034,0.271-0.139,0.339
	c-0.034,0-0.069,0-0.104,0.034c-0.208,0-0.313-0.374-0.277-0.543c0-0.034-0.035-0.102-0.035-0.102c-0.034,0-0.104,0-0.139,0.034
	c0,0,0,0.068,0,0.102c0.209,0.237,0.209,0.645-0.139,0.713c-0.104,0.034-0.242,0-0.346-0.068c-0.035-0.034-0.104-0.068-0.14-0.102
	c-0.034-0.034-0.104-0.17-0.173-0.102c-0.139,0.068-0.035,0.169,0.069,0.204c0.069,0,0.139,0.034,0.173,0.068
	c0.104,0.068,0.209,0.17,0.277,0.238c0,0,0.035,0.034,0.035,0.068c0,0,0,0.034-0.035,0.034c0,0-0.034,0-0.068,0
	c-0.139,0-0.243-0.034-0.348-0.034c-0.069,0-0.174-0.034-0.208-0.068c-0.069-0.034-0.139-0.136-0.208-0.102
	c-0.069,0-0.139,0.102-0.139,0.17s0.035,0.102,0.139,0.102c0.069,0,0.174,0,0.242,0c0.07,0,0.174,0.034,0.243,0.068
	c0.104,0.034,0.174,0.068,0.278,0.136c0,0.068-0.035,0.102-0.035,0.17c-0.035,0.034-0.104,0.068-0.139,0.102
	c-0.174,0.068-0.348,0.136-0.521,0.068c-0.069-0.034-0.139,0.068-0.104,0.136c0.035,0.068,0.104,0.102,0.174,0.034
	c0.104-0.068,0.208-0.102,0.347-0.102c0.069,0,0.14,0,0.174,0s0.034,0,0.069,0c0,0.068,0.035,0.102,0.035,0.17
	c-0.07,0.034-0.139,0.068-0.209,0.102c-0.069,0-0.104,0.034-0.173,0.034c-0.035,0-0.104,0-0.14,0c-0.034,0-0.068,0-0.104,0.034
	s-0.035,0.102,0,0.136v0.034c0.035,0.034,0.069,0.102,0.104,0.102c0.035,0,0.07-0.034,0.07-0.068
	c0.034-0.034,0.069-0.068,0.104-0.068c0.069-0.068,0.243-0.17,0.382-0.17c0.034,0.068,0.069,0.136,0.139,0.204
	c0,0.034-0.034,0.034-0.034,0.068c-0.07,0.102-0.104,0.204-0.174,0.271c-0.035,0.034-0.104,0.102-0.139,0.102
	c-0.035,0.034-0.243,0.068-0.174,0.17c0.035,0.068,0.104,0.136,0.174,0.102c0.035-0.034,0.069-0.102,0.104-0.136
	c0.035-0.068,0.104-0.136,0.174-0.204s0.174-0.136,0.277-0.17c0.104,0.068,0.174,0.136,0.313,0.17c0,0.034,0,0.068,0,0.102
	c0,0.102-0.035,0.169-0.139,0.237c-0.104,0.068,0.034,0.17,0.104,0.136c0.069,0,0.069-0.136,0.069-0.169
	c0-0.102,0.034-0.17,0.104-0.238c0.035-0.034,0.104-0.034,0.139,0.034c0.035,0.136,0.035,0.306,0,0.407
	c0,0.067-0.035,0.17-0.069,0.237c-0.034,0.034-0.069,0.103-0.034,0.137c0,0.033,0.034,0.033,0.034,0.033
	c0.069,0.034,0.139,0,0.173-0.067c0-0.034,0-0.103,0-0.136c-0.034-0.102,0-0.238,0.035-0.374c0.035-0.102,0.035-0.271,0.139-0.339
	c0.035,0,0.069,0,0.104-0.034c0.209,0.034,0.277,0.374,0.243,0.543c0,0.034,0.034,0.103,0.034,0.103c0.035,0,0.104,0,0.139-0.035
	c0.035,0,0.035-0.067,0-0.102c-0.104-0.136-0.139-0.271-0.104-0.441c0-0.068,0.035-0.136,0.035-0.169
	c0.104-0.204,0.416-0.238,0.658-0.136c0.035,0.034,0.104,0.068,0.139,0.102c0.035,0.034,0.104,0.17,0.174,0.102
	c0.139-0.068,0.035-0.17-0.069-0.204c-0.069,0-0.139-0.034-0.173-0.068c-0.104-0.068-0.209-0.169-0.313-0.238V9.458
	c0-0.034,0.035-0.068,0.035-0.102h0.034c0.139,0,0.243,0,0.347,0.034c0.069,0,0.174,0.034,0.208,0.068
	c0.069,0.034,0.139,0.102,0.208,0.102C14.718,9.628,14.787,9.561,14.787,9.492z"/>
<path fill="#001B89" d="M14.787,17.492c0-0.068-0.069-0.102-0.139-0.102s-0.174,0.033-0.242,0c-0.07,0-0.174-0.034-0.243-0.034
	c-0.104-0.034-0.173-0.034-0.277-0.102c0-0.067,0.034-0.136,0.034-0.204c0.035-0.033,0.07-0.068,0.104-0.068
	c0.139-0.067,0.312-0.135,0.521-0.102c0.068,0.034,0.139-0.068,0.104-0.136s-0.104-0.102-0.174-0.034
	c-0.104,0.068-0.207,0.102-0.312,0.102c-0.069,0-0.139,0-0.173,0h-0.035c0-0.067-0.035-0.135-0.035-0.169
	c0.07-0.034,0.104-0.067,0.174-0.103c0.035,0,0.104-0.033,0.174-0.033c0.034,0,0.104,0,0.139,0c0.034,0,0.068,0,0.104-0.034
	s0.035-0.103,0-0.136v-0.034c-0.035-0.034-0.069-0.102-0.104-0.102c-0.035,0-0.07,0.034-0.07,0.067
	c-0.034,0.034-0.068,0.068-0.104,0.102c-0.069,0.068-0.208,0.17-0.347,0.17c-0.034-0.067-0.104-0.17-0.173-0.237
	c0,0,0-0.034,0.034-0.034c0.034-0.102,0.104-0.203,0.173-0.271c0.035-0.033,0.104-0.102,0.139-0.136
	c0.035-0.034,0.209-0.067,0.174-0.17c-0.035-0.067-0.104-0.136-0.174-0.102c-0.034,0.034-0.068,0.102-0.104,0.136
	c-0.035,0.068-0.104,0.136-0.174,0.203c-0.068,0.068-0.173,0.137-0.277,0.17c-0.104-0.067-0.208-0.135-0.313-0.17
	c0-0.033,0-0.067,0-0.102c0-0.102,0.035-0.17,0.104-0.237c0.104-0.068-0.034-0.17-0.104-0.136c-0.068,0-0.034,0.136-0.034,0.17
	c0,0.102-0.034,0.17-0.104,0.237c-0.034,0.034-0.104,0.034-0.139-0.034c-0.034-0.136-0.034-0.306-0.034-0.407
	c0-0.067,0.034-0.17,0.034-0.237c0.035-0.034,0.035-0.103,0.035-0.137c0-0.033-0.035-0.033-0.035-0.033
	c-0.068-0.034-0.139,0-0.173,0.067c0,0.034,0,0.103,0,0.136c0.034,0.102,0,0.238,0,0.374c-0.034,0.102-0.034,0.271-0.139,0.339
	c-0.034,0-0.069,0-0.104,0.035c-0.208,0-0.313-0.374-0.277-0.544c0-0.034-0.035-0.103-0.035-0.103c-0.034,0-0.104,0-0.139,0.035
	c0,0,0,0.067,0,0.102c0.209,0.237,0.209,0.645-0.139,0.713c-0.104,0.034-0.242,0-0.346-0.068c-0.035-0.033-0.104-0.067-0.14-0.102
	c-0.034-0.033-0.104-0.17-0.173-0.102c-0.139,0.068-0.035,0.17,0.069,0.203c0.069,0,0.139,0.034,0.173,0.068
	c0.104,0.068,0.209,0.17,0.277,0.238c0,0,0.035,0.033,0.035,0.067c0,0,0,0.034-0.035,0.034c0,0-0.034,0-0.068,0
	c-0.139,0-0.243-0.034-0.348-0.034c-0.069,0-0.174-0.034-0.208-0.067c-0.069-0.035-0.139-0.137-0.208-0.103
	c-0.069,0-0.139,0.103-0.139,0.17s0.035,0.103,0.139,0.103c0.069,0,0.174,0,0.242,0c0.07,0,0.174,0.033,0.243,0.067
	c0.104,0.034,0.174,0.067,0.278,0.136c0,0.068-0.035,0.102-0.035,0.17c-0.035,0.033-0.104,0.068-0.139,0.102
	c-0.174,0.068-0.348,0.137-0.521,0.068c-0.069-0.034-0.139,0.068-0.104,0.136c0.035,0.067,0.104,0.102,0.174,0.034
	c0.104-0.068,0.208-0.102,0.347-0.102c0.069,0,0.14,0,0.174,0s0.034,0,0.069,0c0,0.067,0.035,0.102,0.035,0.169
	c-0.07,0.034-0.139,0.067-0.209,0.103c-0.069,0-0.104,0.033-0.173,0.033c-0.035,0-0.104,0-0.14,0c-0.034,0-0.068,0-0.104,0.034
	s-0.035,0.103,0,0.136v0.034c0.035,0.034,0.069,0.102,0.104,0.102c0.035,0,0.07-0.034,0.07-0.067
	c0.034-0.034,0.069-0.068,0.104-0.068c0.069-0.068,0.243-0.17,0.382-0.17c0.034,0.068,0.069,0.137,0.139,0.204
	c0,0.034-0.034,0.034-0.034,0.067c-0.07,0.103-0.104,0.204-0.174,0.271c-0.035,0.035-0.104,0.103-0.139,0.103
	c-0.035,0.034-0.243,0.067-0.174,0.17c0.035,0.067,0.104,0.136,0.174,0.102c0.035-0.034,0.069-0.102,0.104-0.136
	c0.035-0.068,0.104-0.136,0.174-0.203c0.069-0.068,0.174-0.137,0.277-0.17c0.104,0.067,0.174,0.135,0.313,0.17
	c0,0.033,0,0.067,0,0.102c0,0.102-0.035,0.17-0.139,0.237c-0.104,0.068,0.034,0.17,0.104,0.136c0.069,0,0.069-0.136,0.069-0.17
	c0-0.102,0.034-0.17,0.104-0.237c0.035-0.034,0.104-0.034,0.139,0.034c0.035,0.136,0.035,0.306,0,0.407
	c0,0.067-0.035,0.17-0.069,0.237c-0.034,0.034-0.069,0.103-0.034,0.137c0,0.033,0.034,0.033,0.034,0.033
	c0.069,0.034,0.139,0,0.173-0.067c0-0.034,0-0.103,0-0.136c-0.034-0.102,0-0.238,0.035-0.374c0.035-0.102,0.035-0.271,0.139-0.339
	c0.035,0,0.069,0,0.104-0.035c0.209,0.035,0.277,0.374,0.243,0.544c0,0.034,0.034,0.103,0.034,0.103c0.035,0,0.104,0,0.139-0.035
	c0.035,0,0.035-0.067,0-0.102c-0.104-0.136-0.139-0.271-0.104-0.441c0-0.068,0.035-0.136,0.035-0.17
	c0.104-0.203,0.416-0.237,0.658-0.136c0.035,0.034,0.104,0.068,0.139,0.103c0.035,0.033,0.104,0.17,0.174,0.102
	c0.139-0.068,0.035-0.17-0.069-0.204c-0.069,0-0.139-0.034-0.173-0.067c-0.104-0.068-0.209-0.17-0.313-0.238v-0.033
	c0-0.035,0.035-0.068,0.035-0.103h0.034c0.139,0,0.243,0,0.347,0.034c0.069,0,0.174,0.033,0.208,0.068
	c0.069,0.033,0.139,0.102,0.208,0.102C14.718,17.629,14.787,17.561,14.787,17.492z"/>
<path fill="#001B89" d="M7.517,17.771c-0.294-0.443-0.63-0.846-0.924-1.289c-0.126-0.16-0.21-0.281-0.336-0.482
	c-0.378,0.563-0.756,1.127-1.092,1.69c-0.084,0.12-0.126,0.201-0.21,0.321c-0.168,0.282-0.168,0.604-0.084,0.886c0,0,0,0,0,0.04
	c0.168,0.604,0.588,0.967,1.26,1.047c0.252,0.04,0.504,0,0.714-0.08c0.294-0.081,0.546-0.282,0.756-0.604
	c0.084-0.121,0.126-0.202,0.168-0.322C7.853,18.576,7.811,18.174,7.517,17.771z"/>
</svg>
