<?xml version="1.0" encoding="utf-8"?>
<!-- Generator: Adobe Illustrator 15.1.0, SVG Export Plug-In . SVG Version: 6.00 Build 0)  -->
<!DOCTYPE svg PUBLIC "-//W3C//DTD SVG 1.1//EN" "http://www.w3.org/Graphics/SVG/1.1/DTD/svg11.dtd">
<svg version="1.1" id="Layer_1" xmlns="http://www.w3.org/2000/svg" xmlns:xlink="http://www.w3.org/1999/xlink" x="0px" y="0px"
	 width="17px" height="23px" viewBox="-4 0 17 23" enable-background="new -4 0 17 23" xml:space="preserve">
<path fill="#001B89" d="M8.738,12.699c0,0,0-0.541,0-1.216c0-0.811-0.264-1.351-0.264-1.756c0,0,0-2.162-0.66-3.107
	c-0.133-0.405-0.66-0.675-0.66-0.675C6.758,5.809,6.23,5.539,5.967,5.404V4.863c0.131-0.135,0.396-0.27,0.396-0.405
	c0,0,0-0.27,0.132-0.54c0.133,0,0.396-0.271,0.396-0.405c0,0,0-0.541,0-0.676c0.131-0.405,0.264-1.081-0.133-1.621
	c-0.264-0.405-0.396-0.405-0.66-0.541c0.133,0,0.133,0,0.133,0s0,0-0.133,0c-0.131,0-0.131,0-0.131,0s0-0.27-0.264-0.405
	C5.438,0,5.043,0,5.043,0s0.264,0.135,0.264,0.27c0,0.135-0.133,0-0.66,0c-0.66,0.135-1.583,0.676-1.583,1.486
	c0,0.405,0,0.675,0,0.946c-0.132,0-0.132,0.675-0.132,0.811c0,0.135,0.396,0.405,0.396,0.405c0,0.27,0.132,0.405,0.132,0.405
	c0,0.135,0.132,0.27,0.396,0.405v0.675c-0.264,0.135-0.66,0.27-1.188,0.541c0,0-0.528,0.27-0.792,0.54
	c-0.528,0.946-0.66,3.107-0.66,3.107c0,0.405-0.264,0.946-0.264,1.756c0,0.675,0,1.216,0,1.216s-0.132,1.08-0.132,1.215
	c0,0.136,0.396,0.676,0.396,0.676s1.056,0.135,0.924,0c0.132,0,0.132-0.135,0.132-0.135l-0.396-0.135v-0.541l0.264,0.271v0.405
	h0.132c0,0,0.132-0.811,0.132-0.945c0-0.136-0.396-0.811-0.396-0.811l0.66-2.297c0,0,0.132-1.081,0.264-2.026
	c0,1.081-0.132,3.917-0.132,4.188c0,0-0.264,2.026-0.264,2.161c0,0.271,0,3.107,0,3.107s-0.264,0.811-0.264,1.217
	c0,0.27,0.528,2.432,0.528,2.432l-0.132,0.27c0,0,0,0.271,0,0.541v0.135c0,0.135,0,0.135,0,0.135c0,0.27,0,0.405,0,0.405
	c0.132,0.271,1.583,0.136,1.716,0.136c0,0,0-0.271,0-0.406l-0.132-0.27l-0.132-0.135c0-0.136,0-0.406,0-0.676
	c0-0.135-0.132-0.676-0.132-0.945c0-0.271,0.132-1.757,0.132-1.893c0-0.135,0.264-0.675,0.396-0.945
	c0.132-0.27,0.132-1.351,0.132-1.351s0.396-0.676,0.396-0.811c0.131,0.135,0.396,0.811,0.396,0.811s0,1.216,0.132,1.351
	c0.133,0.271,0.396,0.811,0.396,0.945c0,0.136,0.131,1.621,0.131,1.893c0,0.27-0.131,0.811-0.131,0.945s0,0.405,0,0.54l-0.264,0.54
	c0,0.135,0,0.406,0,0.406s1.583,0.135,1.715-0.136c0,0,0-0.136,0-0.405c-0.132-0.27-0.132-0.811-0.132-0.811l-0.132-0.27
	c0,0,0.527-2.162,0.527-2.432c0-0.271-0.131-1.082-0.131-1.082s0-2.836,0-3.106s-0.265-2.026-0.265-2.161
	c0-0.136-0.132-2.973-0.132-4.054c0.132,0.946,0.264,1.892,0.264,1.892l0.66,2.297c0,0-0.396,0.676-0.396,0.811
	s0.133,0.945,0.133,0.945l0.264-0.135v-0.405V13.51v0.54L7.551,14.32c0,0-0.133,0.27-0.133,0.405c0,0.135,0.924,0,0.924,0
	s0.396-0.54,0.396-0.676C8.869,13.779,8.738,12.699,8.738,12.699z"/>
</svg>
