<?xml version="1.0" encoding="utf-8"?>
<!-- Generator: Adobe Illustrator 15.1.0, SVG Export Plug-In . SVG Version: 6.00 Build 0)  -->
<!DOCTYPE svg PUBLIC "-//W3C//DTD SVG 1.1//EN" "http://www.w3.org/Graphics/SVG/1.1/DTD/svg11.dtd">
<svg version="1.1" id="Layer_1" xmlns="http://www.w3.org/2000/svg" xmlns:xlink="http://www.w3.org/1999/xlink" x="0px" y="0px"
	 width="17px" height="17px" viewBox="-2.5 0 17 17" enable-background="new -2.5 0 17 17" xml:space="preserve">
<path fill="#001B89" d="M8.803,15.501c-0.036-1.235,1.383-2.414,1.495-2.501c0.111,0.087,1.53,1.266,1.495,2.501
	c-0.012,0.903-0.666,1.481-1.495,1.499C9.469,16.982,8.813,16.404,8.803,15.501z M10.779,16.015
	c0.127-0.122,0.195-0.304,0.197-0.523l0.001-0.007l0,0v-0.006c0.009-0.316-0.173-0.729-0.514-1.16
	c-0.056-0.07-0.112-0.137-0.167-0.199c-0.055,0.063-0.11,0.129-0.166,0.199c-0.34,0.432-0.523,0.844-0.514,1.16v0.006v0.007
	c0.003,0.22,0.071,0.401,0.198,0.523c0.12,0.115,0.286,0.181,0.482,0.187C10.494,16.195,10.66,16.13,10.779,16.015z"/>
<path fill="#001B89" d="M6.31,0c2.515,0,3.721,7.874,3.721,7.874c1.027,0.351,1.764,1.299,1.764,2.416
	c0,1.412-1.18,2.559-2.636,2.561C8.523,13.547,7.484,14,6.31,14s-2.214-0.453-2.849-1.15c-1.457-0.002-2.636-1.148-2.636-2.561
	c0-1.116,0.736-2.064,1.763-2.416C2.588,7.874,3.794,0,6.31,0z M9.155,12.15c0.512-0.002,0.993-0.195,1.354-0.547
	c0.362-0.352,0.561-0.818,0.561-1.314c0-0.788-0.515-1.494-1.28-1.756l-0.411-0.14L9.316,7.976c0,0-0.001-0.002-0.001-0.004
	C9.299,7.867,8.998,5.98,8.418,4.127c-0.34-1.082-0.705-1.936-1.086-2.535C6.969,1.017,6.605,0.7,6.309,0.7
	c-0.296,0-0.661,0.318-1.027,0.896C4.901,2.198,4.536,3.054,4.196,4.14C3.603,6.037,3.305,7.957,3.302,7.976L3.238,8.393l-0.41,0.14
	c-0.767,0.262-1.282,0.968-1.282,1.756c0,0.496,0.2,0.963,0.561,1.314c0.362,0.352,0.843,0.545,1.354,0.547h0.325l0.215,0.236
	C4.523,12.959,5.385,13.3,6.309,13.3c0.924,0,1.786-0.341,2.307-0.913L8.83,12.15H9.155z"/>
<path fill="#001B89" d="M3.405,11.176c-0.42,0-0.761-0.343-0.761-0.764C2.644,10.184,2.46,10,2.233,10
	c-0.227,0-0.411,0.184-0.411,0.412C1.822,11.289,2.531,12,3.406,12c0.227,0,0.411-0.185,0.411-0.412S3.632,11.176,3.405,11.176z"/>
</svg>
