<svg width="19" height="15" viewBox="0 0 19 15" fill="none" xmlns="http://www.w3.org/2000/svg">
<path fill-rule="evenodd" clip-rule="evenodd" d="M14.5865 12.9876C12.5634 14.3196 10.0346 15.1188 7.3793 14.9856C5.10335 14.9856 2.8274 14.1864 0.930769 12.7212C0.804327 12.588 0.804327 12.3216 0.930769 12.1884C1.05721 12.0552 1.31009 11.922 1.43654 12.0552C3.20672 13.5204 5.35623 14.1864 7.50574 14.1864C9.90813 14.1864 12.3105 13.5204 14.2072 12.3216C14.3336 12.1884 14.5865 12.3216 14.7129 12.4548C14.8394 12.7212 14.8394 12.9876 14.5865 12.9876Z" fill="#001B89"/>
<path d="M17.7882 4C17.7882 4 10.5397 -0.280093 3.82812 1.38439" stroke="#000E79" stroke-width="0.7086" stroke-linecap="round"/>
<path d="M14.7965 7C14.7965 7 11.4311 2.68 6.81934 4.408" stroke="#000E79" stroke-width="0.7086" stroke-linecap="round"/>
<path d="M12.7484 8.70732C12.7484 8.82927 12.8694 8.82927 12.7484 8.70732C12.7484 10.5366 11.4174 12 9.72338 12C8.15036 12 6.81934 10.5366 6.81934 8.82927C6.81934 8.09756 7.06134 7.4878 7.42435 7" stroke="#000E79" stroke-width="0.7086" stroke-linecap="round"/>
<path fill-rule="evenodd" clip-rule="evenodd" d="M10.8078 11C11.9092 11 12.8021 10.1046 12.8021 9C12.8021 7.89543 11.9092 7 10.8078 7C9.70635 7 8.81348 7.89543 8.81348 9C8.81348 10.1046 9.70635 11 10.8078 11Z" fill="#001B89"/>
<path d="M4.82535 13C3.5433 11.875 2.9735 10.5 2.83105 9" stroke="#000E79" stroke-width="0.7086" stroke-linecap="round"/>
<path d="M1.83301 10C1.83301 10 5.92048 1 17.7873 10" stroke="#000E79" stroke-width="0.7086" stroke-linecap="round"/>
</svg>
