<?xml version="1.0" encoding="utf-8"?>
<!-- Generator: Adobe Illustrator 15.1.0, SVG Export Plug-In . SVG Version: 6.00 Build 0)  -->
<!DOCTYPE svg PUBLIC "-//W3C//DTD SVG 1.1//EN" "http://www.w3.org/Graphics/SVG/1.1/DTD/svg11.dtd">
<svg version="1.1" id="Layer_1" xmlns="http://www.w3.org/2000/svg" xmlns:xlink="http://www.w3.org/1999/xlink" x="0px" y="0px"
	 width="17px" height="14px" viewBox="-2.5 0 17 14" enable-background="new -2.5 0 17 14" xml:space="preserve">
<path fill="#001B89" d="M6.811,4.535C6.811,5.894,5.692,7,4.318,7S1.825,5.894,1.825,4.535c0-1.088,1.523-3.467,2.128-4.344
	c0.175-0.254,0.555-0.254,0.73,0C5.281,1.059,6.811,3.444,6.811,4.535z M5.928,4.535c0-0.611-0.877-2.17-1.61-3.304
	c-0.732,1.134-1.61,2.693-1.61,3.304c0,0.878,0.722,1.592,1.61,1.592S5.928,5.413,5.928,4.535z"/>
<path fill="#001B89" d="M8.422,5.189c0.184-0.252,0.582-0.252,0.766,0c0.732,1.003,2.609,3.77,2.609,5.016
	c0,1.541-1.342,2.795-2.992,2.795c-1.649,0-2.991-1.254-2.991-2.795C5.813,8.961,7.677,6.211,8.422,5.189z M6.74,10.205
	c0,1.063,0.927,1.93,2.064,1.93c1.139,0,2.065-0.866,2.065-1.93c0-0.745-1.145-2.651-2.065-3.987
	C7.885,7.554,6.74,9.461,6.74,10.205z"/>
<path fill="#001B89" d="M2.936,7.202c0.185-0.269,0.585-0.269,0.77,0c0.597,0.869,2.108,3.234,2.108,4.324
	C5.814,12.891,4.696,14,3.321,14c-1.375,0-2.493-1.109-2.493-2.475C0.828,10.436,2.334,8.078,2.936,7.202z M1.76,11.525
	c0,0.855,0.7,1.55,1.561,1.55s1.561-0.694,1.561-1.55c0-0.711-1.179-2.619-1.561-3.217C2.938,8.906,1.76,10.814,1.76,11.525z"/>
</svg>
