<svg width="18" height="19" viewBox="0 0 18 19" fill="none" xmlns="http://www.w3.org/2000/svg">
<path fill-rule="evenodd" clip-rule="evenodd" d="M9.30619 0.49087C11.1591 -0.239753 12.8796 -0.117983 14.2031 0.612641C16.85 2.19566 17.9088 6.21409 17.7764 9.13658C17.7764 17.7823 12.4825 19 9.30619 19C6.12985 19 0.835938 17.6605 0.835938 9.13658C0.835938 6.21409 1.76237 2.19566 4.40933 0.612641C5.86515 -0.117983 7.45333 -0.239753 9.30619 0.49087ZM1.76241 9.1367C1.76241 16.5647 5.86519 18.1477 9.30623 18.1477C12.7473 18.1477 16.9824 16.5647 16.9824 9.1367C16.9824 6.2142 16.056 2.68285 13.8061 1.34338C12.6149 0.612754 11.1591 0.612754 9.57092 1.34338H9.17388C8.37979 0.978066 7.58571 0.856295 6.92397 0.856295C6.12988 0.856295 5.46814 0.978066 4.93875 1.34338C2.68884 2.68285 1.76241 6.2142 1.76241 9.1367Z" fill="#001B89"/>
<path fill-rule="evenodd" clip-rule="evenodd" d="M14.0707 3.63764C12.711 2.9021 11.2152 2.77951 9.3116 3.39246C7.54393 2.77951 5.91224 2.9021 4.68847 3.63764C2.64885 4.86355 1.83301 7.68313 1.83301 9.64457C1.83301 11.2382 2.37691 12.8319 3.19275 14.0578C3.19275 14.1804 3.32873 14.303 3.32873 14.303C3.32873 14.303 3.32873 14.4256 3.4647 14.4256C4.82444 16.1419 6.86406 17 9.3116 17C11.8951 17 13.9347 16.1419 15.1585 14.4256C15.1585 14.4256 15.1585 14.303 15.2945 14.303C15.4304 14.303 15.4304 14.1804 15.4304 14.0578C16.2463 12.8319 16.7902 11.2382 16.7902 9.64457C16.7902 7.68313 16.1103 4.98614 14.0707 3.63764ZM4.28121 4.86339L4.55316 4.49561C4.55316 4.49561 5.23303 4.00525 5.64095 3.88266C5.72609 3.85708 5.80531 3.83149 5.88107 3.80702C6.16832 3.71424 6.40596 3.63748 6.72875 3.63748C8.22447 3.51489 9.17629 3.88266 9.17629 3.88266L9.44824 4.00525C9.44824 4.00525 9.99213 3.76007 10.536 3.63748C10.944 3.3923 12.7116 3.26971 14.2073 4.49561C14.4793 4.74079 14.7512 4.98598 14.8872 5.23116C15.5671 6.08929 15.975 7.31519 16.111 8.41851H15.5671C15.4967 8.41851 15.4628 8.41851 15.4464 8.40154C15.4311 8.38571 15.4311 8.3551 15.4311 8.29592L14.4793 6.82483C13.7994 5.84411 12.5756 5.23116 11.3519 5.23116H9.44824H9.31226H9.17629H7.40862C6.18485 5.23116 4.96108 5.84411 4.14523 6.82483L3.32939 8.29592C3.32939 8.29592 3.19341 8.41851 3.05744 8.41851H2.64952C2.78549 7.07001 3.32939 5.84411 4.28121 4.86339ZM3.87355 14.0579C4.96135 15.4064 6.72901 16.3871 9.31253 16.3871C11.896 16.3871 13.6637 15.4064 14.4796 14.0579V13.9353C14.4796 12.3416 12.9838 11.2383 11.4881 11.2383C10.8082 11.2383 9.9924 11.4835 9.4485 11.8512C9.31253 11.9738 9.04058 11.9738 8.9046 11.8512C8.36071 11.4835 7.68083 11.2383 6.86499 11.2383C5.50524 11.2383 3.87355 12.4642 3.87355 13.9353V14.0579ZM7.95243 10.0123C8.0884 10.3801 8.49633 10.6253 8.76827 10.7479H9.31217H9.85607C10.264 10.6253 10.5359 10.3801 10.6719 10.0123C10.8079 9.64458 10.8079 9.2768 10.5359 8.90903L10.4 8.66385C10.264 8.54126 10.264 8.41867 10.4 8.41867C10.4 8.29608 10.5359 8.29608 10.6719 8.29608C11.2158 8.17349 11.8957 8.41867 12.3036 8.78644C12.9835 9.2768 13.3914 10.1349 13.5274 11.1157C13.4282 11.0799 13.3319 11.0441 13.2376 11.0091C12.6859 10.8042 12.2044 10.6253 11.6237 10.6253C10.8079 10.6253 9.99204 10.8705 9.31217 11.2383C8.6323 10.8705 7.81645 10.6253 7.00061 10.6253C6.32074 10.6253 5.77684 10.7479 5.23294 10.9931C5.36891 10.0123 5.77684 9.15421 6.45671 8.66385C7.00061 8.29608 7.54451 8.0509 8.0884 8.17349C8.22438 8.17349 8.36035 8.29608 8.36035 8.29608V8.54126L8.0884 8.90903C7.95243 9.2768 7.81645 9.64458 7.95243 10.0123ZM14.207 11.606C14.7509 12.0964 15.1588 12.5867 15.2948 13.1997C15.9747 12.0964 16.2466 10.8705 16.3826 9.52198V8.78644H15.8387C15.5667 8.78644 15.2948 8.66385 15.1588 8.41867L14.207 6.94758C13.5271 6.21204 12.5753 5.72168 11.4875 5.72168H9.58386H9.44788H9.31191H7.40827C6.32047 5.72168 5.23267 6.21204 4.68878 7.07017L3.73696 8.54126C3.60098 8.78644 3.32903 8.90903 3.05708 8.90903H2.51319V9.64457C2.51319 10.8705 2.78514 12.0964 3.32903 13.1997C3.60098 12.5867 4.00891 11.9738 4.41683 11.4834C4.41683 10.1349 4.96073 8.90903 5.91255 8.17349C6.59242 7.68313 7.40827 7.43795 8.22411 7.56054C8.63203 7.56054 8.90398 7.80572 9.17593 8.0509C9.17593 8.10878 9.18351 8.16666 9.19151 8.22776C9.2174 8.4255 9.24771 8.65702 9.03996 9.03162L8.76801 9.2768V9.76716C8.76801 9.88976 8.90398 10.0123 9.17593 10.0123H9.44788H9.71983C9.8558 10.0123 9.99178 9.88976 9.99178 9.76716C10.1278 9.64457 10.1278 9.39939 9.99178 9.2768L9.71983 9.03162C9.44788 8.54126 9.44788 8.29608 9.58386 8.0509C9.71983 7.80572 10.1278 7.56054 10.5357 7.56054C11.2155 7.43795 12.0314 7.68313 12.7113 8.29608C13.6631 9.03162 14.207 10.1349 14.207 11.606Z" fill="#001B89"/>
</svg>
