<?xml version="1.0" encoding="utf-8"?>
<!-- Generator: Adobe Illustrator 15.1.0, SVG Export Plug-In . SVG Version: 6.00 Build 0)  -->
<!DOCTYPE svg PUBLIC "-//W3C//DTD SVG 1.1//EN" "http://www.w3.org/Graphics/SVG/1.1/DTD/svg11.dtd">
<svg version="1.1" id="Layer_1" xmlns="http://www.w3.org/2000/svg" xmlns:xlink="http://www.w3.org/1999/xlink" x="0px" y="0px"
	 width="17px" height="21px" viewBox="-1 0 17 21" enable-background="new -1 0 17 21" xml:space="preserve">
<path fill="#001B89" d="M0.831,13.322c0,0.646,0,1.184,0.129,1.829c0.389,0.86,1.166,1.613,2.46,1.828
	c1.166,0.108,2.202-0.215,3.108-0.86c1.166-0.86,1.166-0.753,2.59-1.291c0.647-0.215,1.166-0.537,1.424-0.752
	c0.26-0.216,0.26-0.431,0.26-0.539c-0.13-0.322-0.389-0.43-0.777-0.322c-0.518,0.107-1.035,0.215-1.424,0.431
	c-1.037,0.538-1.684,1.29-2.59,1.828c-0.777,0.538-1.554,0.86-2.46,0.753c-0.907-0.107-1.425-0.645-1.684-1.291
	c-0.13-0.43-0.259-0.968-0.13-1.506c0-0.215-0.129-0.322-0.388-0.43C1.09,13,0.96,13.107,0.831,13.322z"/>
<path fill="none" stroke="#001B89" stroke-width="0.7086" stroke-linecap="round" d="M8.434,20
	c-0.833-1.117-1.112-2.111-0.556-2.732c0.835-0.869,4.449-3.353,4.449-3.353s2.642-1.738,0.834-3.974S9.129,8.079,6.349,4.104
	C5.792,3.235,4.958,1.869,4.819,1"/>
</svg>
