<svg width="64" height="64" viewBox="0 0 64 64" fill="none" xmlns="http://www.w3.org/2000/svg">
<g filter="url(#filter0_d)">
<path fill-rule="evenodd" clip-rule="evenodd" d="M35.2657 9.83234C35.7185 10.2734 36 10.8894 36 11.5718C36 12.9102 34.9136 13.998 33.574 14H28V6L33.4824 6.0004C34.7692 6.00263 35.8113 7.04676 35.8113 8.33324C35.8113 8.90382 35.6058 9.42669 35.2657 9.83234ZM29.9059 12.2854H33.3374C33.7576 12.2854 34.0974 11.9445 34.0974 11.5226C34.0974 11.1022 33.758 10.7615 33.3376 10.7615H29.9059V12.2854ZM29.9059 9.04813H33.2391C33.6068 9.04813 33.9063 8.7496 33.9063 8.38134C33.9063 8.0145 33.6068 7.71476 33.2391 7.71476H29.9059V9.04813Z" fill="#FEFEFE"/>
<path fill-rule="evenodd" clip-rule="evenodd" d="M32.0001 17.0467L30.5742 19.953H33.4252L32.0001 17.0467ZM37 23H34.9247L34.2713 21.6661H29.7287L29.0744 23H27L31.0588 15H32.9404L37 23Z" fill="#FEFEFE"/>
<path fill-rule="evenodd" clip-rule="evenodd" d="M34.7119 24H37L32.9504 29.2093V32H31.0488V29.2093L27 24H29.2875L31.9999 27.6432L34.7119 24Z" fill="#FEFEFE"/>
<path fill-rule="evenodd" clip-rule="evenodd" d="M45 24V25.7147H39.8421V27.0485L44.8156 27.0477V28.7618H39.8421V30.2861H45V32H38V24H45Z" fill="#FEFEFE"/>
<path fill-rule="evenodd" clip-rule="evenodd" d="M52.7275 25.7147H49.9275V27.2386H52.7275C53.1511 27.236 53.4934 26.895 53.4934 26.4771C53.4934 26.0579 53.1511 25.7174 52.7275 25.7147ZM51.374 28.9529H49.9275V32H48V24H52.924C54.3045 24.0044 55.423 25.1124 55.423 26.4785C55.423 27.6064 54.6681 28.5566 53.6244 28.8561L56 32H53.6866L51.374 28.9529Z" fill="#FEFEFE"/>
<path fill-rule="evenodd" clip-rule="evenodd" d="M23 26.0468L21.5739 28.9529H24.4253L23 26.0468ZM28 32H25.9246L25.2713 30.6664H20.7287L20.0746 32H18L22.0587 24H23.9405L28 32Z" fill="#FEFEFE"/>
<path fill-rule="evenodd" clip-rule="evenodd" d="M16.2657 27.8322C16.7185 28.2731 17 28.8893 17 29.5715C17 30.9102 15.9138 31.998 14.5742 32H9V24L14.4826 24.0002C15.7694 24.0028 16.8117 25.0466 16.8117 26.3331C16.8117 26.9039 16.606 27.4268 16.2657 27.8322ZM10.9059 30.285H14.3374C14.758 30.285 15.0974 29.9442 15.0974 29.5226C15.0974 29.102 14.7582 28.761 14.3376 28.761H10.9059V30.285ZM10.9059 27.048H14.2391C14.6072 27.048 14.9063 26.7493 14.9063 26.3814C14.9063 26.0141 14.6072 25.7148 14.2391 25.7148L10.9059 25.7146V27.048Z" fill="#FEFEFE"/>
<path fill-rule="evenodd" clip-rule="evenodd" d="M35 34V35.7145H29.8418V37.0484L34.8154 37.0476V38.7617H29.8418V40.2861H35V42H28V34H35Z" fill="#FEFEFE"/>
<path fill-rule="evenodd" clip-rule="evenodd" d="M28 51V43H32.9318C34.1883 43.0095 35.2039 44.1159 35.2039 45.48C35.2039 46.5172 34.6162 47.4066 33.782 47.777L36 51H33.8891L31.779 47.9535H29.758V51H28ZM33.4467 45.4782C33.4467 45.0586 33.1354 44.7194 32.7498 44.7151H29.758V46.2382H32.7498C33.1356 46.2339 33.4467 45.8945 33.4467 45.4782Z" fill="#FEFEFE"/>
<mask id="mask0" mask-type="alpha" maskUnits="userSpaceOnUse" x="4" y="0" width="56" height="56">
<path fill-rule="evenodd" clip-rule="evenodd" d="M4 0.105469H59.8947V55.9999H4V0.105469Z" fill="white"/>
</mask>
<g mask="url(#mask0)">
<path fill-rule="evenodd" clip-rule="evenodd" d="M59.8947 28.0516C59.8947 43.4865 47.3821 56 31.9474 56C16.5119 56 4 43.4865 4 28.0516C4 12.6181 16.5119 0.105469 31.9474 0.105469C47.3821 0.105469 59.8947 12.6181 59.8947 28.0516ZM6.58921 28.0528C6.58921 14.0477 17.9422 2.69488 31.9474 2.69488C45.9523 2.69488 57.3055 14.0477 57.3055 28.0528C57.3055 42.0578 45.9523 53.4104 31.9474 53.4104C17.9422 53.4104 6.58921 42.0578 6.58921 28.0528Z" fill="#FEFEFE"/>
</g>
</g>
<defs>
<filter id="filter0_d" x="0" y="0.105469" width="63.8947" height="63.8944" filterUnits="userSpaceOnUse" color-interpolation-filters="sRGB">
<feFlood flood-opacity="0" result="BackgroundImageFix"/>
<feColorMatrix in="SourceAlpha" type="matrix" values="0 0 0 0 0 0 0 0 0 0 0 0 0 0 0 0 0 0 127 0"/>
<feOffset dy="4"/>
<feGaussianBlur stdDeviation="2"/>
<feColorMatrix type="matrix" values="0 0 0 0 0 0 0 0 0 0 0 0 0 0 0 0 0 0 0.25 0"/>
<feBlend mode="normal" in2="BackgroundImageFix" result="effect1_dropShadow"/>
<feBlend mode="normal" in="SourceGraphic" in2="effect1_dropShadow" result="shape"/>
</filter>
</defs>
</svg>
